# xmcd
#
# Track frame offsets: 
#        150
#        20638
#        39425
#        54583
#        72187
#
# Disc length: 1228 seconds
#
# Revision: 0
# Processed by: cddbd v1.5.2PL0 Copyright (c) Steve Scherf et al.
# Submitted via: ExactAudioCopy v0.99pb4
#
DISCID=3d04ca05
DTITLE=장혜진 - 하늘 바람... 별
DYEAR=2009
DGENRE=Ballad
TTITLE0=어느날 오후
TTITLE1=한번만 울고 말자
TTITLE2=열심히 한 이별
TTITLE3=그런 여자이니까
TTITLE4=어느 늦은 밤.. (1994년 어느 늦은 밤 Part.2)
EXTD=
EXTT0=
EXTT1=
EXTT2=
EXTT3=
EXTT4=
PLAYORDER=
